# This file uses centimeters as units for non-parametric coordinates.

mtllib paper-rot1.mtl
g default
v -0.610860 -0.398655 -1.757686
v -0.532222 -0.357895 -1.651799
v -0.372859 -0.328930 -1.656166
v -0.248347 -0.332326 -1.648403
v -0.116105 -0.333482 -1.648266
v 0.025647 -0.326074 -1.651706
v 0.144467 -0.341300 -1.648509
v 0.279385 -0.313711 -1.623045
v 0.413961 -0.300832 -1.611852
v 0.542656 -0.298424 -1.603624
v 0.685453 -0.283130 -1.600514
v -0.649996 -0.312823 -1.764693
v -0.525554 -0.272075 -1.715912
v -0.396104 -0.264791 -1.703775
v -0.252837 -0.273089 -1.724856
v -0.109473 -0.253459 -1.718131
v 0.011452 -0.261082 -1.710016
v 0.157244 -0.240978 -1.705918
v 0.286769 -0.236570 -1.696750
v 0.420458 -0.238104 -1.698840
v 0.549705 -0.225029 -1.680650
v 0.670904 -0.210286 -1.650520
v -0.640780 -0.200036 -1.808309
v -0.532911 -0.197825 -1.773694
v -0.388127 -0.198784 -1.789372
v -0.255878 -0.201886 -1.791191
v -0.112702 -0.198285 -1.800256
v 0.003220 -0.209512 -1.789359
v 0.142356 -0.194775 -1.782131
v 0.274465 -0.183709 -1.769603
v 0.418619 -0.156299 -1.756109
v 0.540083 -0.149575 -1.734333
v 0.669804 -0.151113 -1.731363
v -0.650366 -0.120082 -1.857540
v -0.509000 -0.123640 -1.871454
v -0.396019 -0.136200 -1.858134
v -0.258301 -0.122065 -1.849698
v -0.112967 -0.116014 -1.859069
v 0.012977 -0.123865 -1.857589
v 0.147664 -0.119032 -1.854585
v 0.290290 -0.092262 -1.839779
v 0.406562 -0.104135 -1.829975
v 0.544424 -0.084393 -1.816115
v 0.688858 -0.054377 -1.800371
v -0.640468 -0.040236 -1.931750
v -0.512704 -0.052696 -1.937203
v -0.390359 -0.056747 -1.927328
v -0.246669 -0.051164 -1.935067
v -0.114034 -0.048708 -1.931822
v 0.018025 -0.054073 -1.935662
v 0.143492 -0.053609 -1.925258
v 0.271410 -0.043578 -1.908415
v 0.401828 -0.024699 -1.885917
v 0.545285 -0.010400 -1.884642
v 0.684288 0.009133 -1.872449
v -0.655929 0.009553 -2.003644
v -0.515560 0.019786 -2.002496
v -0.388372 0.014043 -2.000497
v -0.243543 0.027452 -2.001864
v -0.109913 0.028477 -2.001319
v 0.005476 0.016744 -1.990246
v 0.152828 0.017490 -2.007499
v 0.290944 0.040192 -1.991003
v 0.404859 0.042199 -1.964309
v 0.548728 0.068341 -1.951718
v 0.671596 0.064563 -1.942238
v -0.652511 0.088506 -2.070476
v -0.529742 0.075088 -2.070512
v -0.398841 0.077712 -2.064883
v -0.248362 0.093173 -2.071412
v -0.118141 0.095739 -2.064975
v 0.015629 0.094347 -2.067025
v 0.139759 0.079714 -2.070012
v 0.275407 0.099440 -2.053342
v 0.400451 0.102246 -2.040056
v 0.544530 0.137871 -2.018251
v 0.669694 0.140430 -2.005366
v -0.640700 0.171421 -2.144060
v -0.517755 0.165838 -2.136485
v -0.374724 0.166260 -2.148544
v -0.251282 0.161622 -2.140657
v -0.130039 0.154539 -2.132407
v 0.003080 0.149541 -2.137234
v 0.155419 0.160760 -2.150378
v 0.270934 0.168871 -2.119623
v 0.418012 0.197760 -2.108382
v 0.551295 0.201846 -2.104334
v 0.671492 0.212352 -2.077161
v -0.661875 0.221127 -2.208745
v -0.519753 0.232572 -2.208621
v -0.385265 0.221722 -2.221048
v -0.245401 0.226643 -2.224565
v -0.110674 0.229743 -2.223345
v 0.011441 0.224222 -2.214648
v 0.150789 0.227785 -2.218864
v 0.282824 0.254039 -2.191055
v 0.401253 0.257896 -2.168273
v 0.546023 0.278811 -2.162058
v 0.684095 0.286817 -2.160205
v -0.653081 0.304960 -2.277560
v -0.528966 0.287015 -2.283838
v -0.399337 0.297172 -2.269054
v -0.252509 0.297787 -2.285769
v -0.132309 0.284004 -2.282887
v 0.000579 0.293842 -2.272583
v 0.136417 0.292130 -2.277594
v 0.269698 0.307171 -2.262588
v 0.417615 0.330740 -2.257737
v 0.547552 0.347910 -2.236335
v 0.670641 0.352664 -2.218602
v -0.641028 0.422605 -2.276465
v -0.515233 0.413778 -2.294173
v -0.391375 0.409162 -2.308651
v -0.246832 0.392068 -2.340156
v -0.114070 0.391356 -2.340240
v 0.001636 0.378932 -2.330264
v 0.154677 0.378281 -2.356174
v 0.288038 0.391970 -2.342623
v 0.407583 0.394513 -2.322581
v 0.549404 0.418457 -2.309572
v 0.675554 0.428556 -2.290404
vt 0.000000 0.000000
vt 0.100000 0.000000
vt 0.200000 0.000000
vt 0.300000 0.000000
vt 0.400000 0.000000
vt 0.500000 0.000000
vt 0.600000 0.000000
vt 0.700000 0.000000
vt 0.800000 0.000000
vt 0.900000 0.000000
vt 1.000000 0.000000
vt 0.000000 0.100000
vt 0.100000 0.100000
vt 0.200000 0.100000
vt 0.300000 0.100000
vt 0.400000 0.100000
vt 0.500000 0.100000
vt 0.600000 0.100000
vt 0.700000 0.100000
vt 0.800000 0.100000
vt 0.900000 0.100000
vt 1.000000 0.100000
vt 0.000000 0.200000
vt 0.100000 0.200000
vt 0.200000 0.200000
vt 0.300000 0.200000
vt 0.400000 0.200000
vt 0.500000 0.200000
vt 0.600000 0.200000
vt 0.700000 0.200000
vt 0.800000 0.200000
vt 0.900000 0.200000
vt 1.000000 0.200000
vt 0.000000 0.300000
vt 0.100000 0.300000
vt 0.200000 0.300000
vt 0.300000 0.300000
vt 0.400000 0.300000
vt 0.500000 0.300000
vt 0.600000 0.300000
vt 0.700000 0.300000
vt 0.800000 0.300000
vt 0.900000 0.300000
vt 1.000000 0.300000
vt 0.000000 0.400000
vt 0.100000 0.400000
vt 0.200000 0.400000
vt 0.300000 0.400000
vt 0.400000 0.400000
vt 0.500000 0.400000
vt 0.600000 0.400000
vt 0.700000 0.400000
vt 0.800000 0.400000
vt 0.900000 0.400000
vt 1.000000 0.400000
vt 0.000000 0.500000
vt 0.100000 0.500000
vt 0.200000 0.500000
vt 0.300000 0.500000
vt 0.400000 0.500000
vt 0.500000 0.500000
vt 0.600000 0.500000
vt 0.700000 0.500000
vt 0.800000 0.500000
vt 0.900000 0.500000
vt 1.000000 0.500000
vt 0.000000 0.600000
vt 0.100000 0.600000
vt 0.200000 0.600000
vt 0.300000 0.600000
vt 0.400000 0.600000
vt 0.500000 0.600000
vt 0.600000 0.600000
vt 0.700000 0.600000
vt 0.800000 0.600000
vt 0.900000 0.600000
vt 1.000000 0.600000
vt 0.000000 0.700000
vt 0.100000 0.700000
vt 0.200000 0.700000
vt 0.300000 0.700000
vt 0.400000 0.700000
vt 0.500000 0.700000
vt 0.600000 0.700000
vt 0.700000 0.700000
vt 0.800000 0.700000
vt 0.900000 0.700000
vt 1.000000 0.700000
vt 0.000000 0.800000
vt 0.100000 0.800000
vt 0.200000 0.800000
vt 0.300000 0.800000
vt 0.400000 0.800000
vt 0.500000 0.800000
vt 0.600000 0.800000
vt 0.700000 0.800000
vt 0.800000 0.800000
vt 0.900000 0.800000
vt 1.000000 0.800000
vt 0.000000 0.900000
vt 0.100000 0.900000
vt 0.200000 0.900000
vt 0.300000 0.900000
vt 0.400000 0.900000
vt 0.500000 0.900000
vt 0.600000 0.900000
vt 0.700000 0.900000
vt 0.800000 0.900000
vt 0.900000 0.900000
vt 1.000000 0.900000
vt 0.000000 1.000000
vt 0.100000 1.000000
vt 0.200000 1.000000
vt 0.300000 1.000000
vt 0.400000 1.000000
vt 0.500000 1.000000
vt 0.600000 1.000000
vt 0.700000 1.000000
vt 0.800000 1.000000
vt 0.900000 1.000000
vt 1.000000 1.000000
vn -0.641592 0.186872 0.743935
vn -0.383717 0.417888 0.823487
vn -0.274819 0.525163 0.805405
vn -0.517625 0.321308 0.792985
vn -0.009754 0.659802 0.751376
vn 0.001983 0.685817 0.727772
vn -0.008990 0.721190 0.692679
vn 0.005826 0.736583 0.676323
vn -0.041953 0.696602 0.716231
vn -0.029503 0.748480 0.662501
vn -0.024425 0.612192 0.790332
vn -0.040789 0.729881 0.682356
vn -0.103685 0.586922 0.802977
vn -0.113781 0.714290 0.690538
vn -0.119421 0.676006 0.727155
vn -0.105347 0.713235 0.692963
vn -0.081356 0.762492 0.641863
vn -0.107185 0.701182 0.704880
vn -0.137123 0.713836 0.686757
vn -0.144655 0.674717 0.723762
vn -0.167252 0.641653 0.748538
vn -0.151294 0.665331 0.731057
vn -0.116461 0.659713 0.742439
vn -0.207166 0.590667 0.779868
vn 0.022010 0.724353 0.689078
vn 0.005907 0.692235 0.721648
vn 0.000569 0.691414 0.722459
vn -0.043167 0.742502 0.668451
vn -0.116337 0.739502 0.663025
vn -0.118815 0.716112 0.687799
vn -0.135108 0.695103 0.706101
vn -0.146970 0.682544 0.715914
vn -0.124318 0.690039 0.713015
vn 0.018580 0.704779 0.709184
vn 0.018248 0.685495 0.727848
vn -0.015889 0.712901 0.701085
vn -0.018738 0.682470 0.730673
vn 0.018274 0.677843 0.734980
vn -0.021180 0.687086 0.726267
vn -0.118114 0.697399 0.706883
vn -0.137979 0.695469 0.705184
vn -0.123639 0.699442 0.703914
vn -0.145956 0.697478 0.701585
vn -0.157339 0.693505 0.703061
vn 0.023223 0.696946 0.716748
vn 0.055600 0.712201 0.699770
vn -0.028655 0.693530 0.719858
vn -0.024813 0.705583 0.708192
vn 0.008098 0.702550 0.711588
vn 0.007388 0.707326 0.706849
vn -0.094976 0.730635 0.676131
vn -0.168980 0.727829 0.664613
vn -0.140867 0.685924 0.713908
vn -0.137410 0.685290 0.715190
vn -0.150237 0.703543 0.694590
vn 0.000998 0.724613 0.689155
vn 0.011087 0.727991 0.685497
vn -0.024147 0.706948 0.706853
vn -0.030336 0.691069 0.722152
vn -0.003788 0.677341 0.735660
vn 0.033114 0.683552 0.729150
vn -0.074068 0.710402 0.699888
vn -0.170558 0.723779 0.668621
vn -0.174771 0.720448 0.671125
vn -0.135901 0.698608 0.702479
vn -0.084429 0.687941 0.720839
vn 0.008897 0.675122 0.737652
vn 0.015515 0.665201 0.746503
vn -0.018295 0.695174 0.718609
vn -0.034634 0.712091 0.701232
vn -0.001674 0.727504 0.686102
vn 0.047565 0.728408 0.683490
vn -0.049498 0.712783 0.699636
vn -0.169142 0.681069 0.712416
vn -0.167837 0.694325 0.699817
vn -0.156869 0.709872 0.686640
vn -0.104770 0.710573 0.695780
vn 0.022179 0.692447 0.721128
vn -0.006055 0.695229 0.718763
vn 0.010135 0.727085 0.686473
vn -0.020079 0.750830 0.660190
vn 0.002404 0.757970 0.652285
vn 0.027258 0.744170 0.667434
vn -0.108686 0.706962 0.698851
vn -0.195355 0.661379 0.724164
vn -0.142204 0.661241 0.736572
vn -0.133276 0.694293 0.707244
vn -0.137585 0.717393 0.682948
vn 0.021615 0.734487 0.678278
vn 0.001655 0.738822 0.673899
vn 0.032299 0.714801 0.698582
vn 0.009402 0.723907 0.689834
vn -0.010681 0.729123 0.684300
vn 0.000452 0.704613 0.709592
vn -0.113371 0.692577 0.712379
vn -0.194304 0.707648 0.679323
vn -0.146888 0.711583 0.687076
vn -0.121882 0.697484 0.706159
vn -0.109437 0.686363 0.718978
vn 0.036422 0.413167 0.909927
vn 0.074440 0.370474 0.925855
vn 0.055045 0.464262 0.883986
vn 0.074103 0.526516 0.846929
vn -0.017861 0.588580 0.808242
vn -0.001131 0.614595 0.788842
vn -0.047580 0.666759 0.743753
vn -0.161678 0.716655 0.678429
vn -0.161143 0.731973 0.662003
vn -0.151013 0.714383 0.683265
vn -0.115052 0.697220 0.707564
vn 0.044664 0.120173 0.991748
vn 0.098392 0.027228 0.994775
vn 0.090235 0.312055 0.945769
vn 0.097721 0.441377 0.891985
vn -0.024410 0.500918 0.865151
vn 0.016369 0.570583 0.821077
vn -0.047452 0.662573 0.747493
vn -0.141788 0.692693 0.707158
vn -0.160225 0.696880 0.699061
vn -0.169192 0.698812 0.695008
vn -0.145268 0.699617 0.699595
s 1
g pPlane2
usemtl initialShadingGroup
f 1/1/1 2/2/2 13/13/3 12/12/4
f 2/2/2 3/3/5 14/14/6 13/13/3
f 3/3/5 4/4/7 15/15/8 14/14/6
f 4/4/7 5/5/9 16/16/10 15/15/8
f 5/5/9 6/6/11 17/17/12 16/16/10
f 6/6/11 7/7/13 18/18/14 17/17/12
f 7/7/13 8/8/15 19/19/16 18/18/14
f 8/8/15 9/9/17 20/20/18 19/19/16
f 9/9/17 10/10/19 21/21/20 20/20/18
f 10/10/19 11/11/21 22/22/22 21/21/20
f 12/12/4 13/13/3 24/24/23 23/23/24
f 13/13/3 14/14/6 25/25/25 24/24/23
f 14/14/6 15/15/8 26/26/26 25/25/25
f 15/15/8 16/16/10 27/27/27 26/26/26
f 16/16/10 17/17/12 28/28/28 27/27/27
f 17/17/12 18/18/14 29/29/29 28/28/28
f 18/18/14 19/19/16 30/30/30 29/29/29
f 19/19/16 20/20/18 31/31/31 30/30/30
f 20/20/18 21/21/20 32/32/32 31/31/31
f 21/21/20 22/22/22 33/33/33 32/32/32
f 23/23/24 24/24/23 35/35/34 34/34/35
f 24/24/23 25/25/25 36/36/36 35/35/34
f 25/25/25 26/26/26 37/37/37 36/36/36
f 26/26/26 27/27/27 38/38/38 37/37/37
f 27/27/27 28/28/28 39/39/39 38/38/38
f 28/28/28 29/29/29 40/40/40 39/39/39
f 29/29/29 30/30/30 41/41/41 40/40/40
f 30/30/30 31/31/31 42/42/42 41/41/41
f 31/31/31 32/32/32 43/43/43 42/42/42
f 32/32/32 33/33/33 44/44/44 43/43/43
f 34/34/35 35/35/34 46/46/45 45/45/46
f 35/35/34 36/36/36 47/47/47 46/46/45
f 36/36/36 37/37/37 48/48/48 47/47/47
f 37/37/37 38/38/38 49/49/49 48/48/48
f 38/38/38 39/39/39 50/50/50 49/49/49
f 39/39/39 40/40/40 51/51/51 50/50/50
f 40/40/40 41/41/41 52/52/52 51/51/51
f 41/41/41 42/42/42 53/53/53 52/52/52
f 42/42/42 43/43/43 54/54/54 53/53/53
f 43/43/43 44/44/44 55/55/55 54/54/54
f 45/45/46 46/46/45 57/57/56 56/56/57
f 46/46/45 47/47/47 58/58/58 57/57/56
f 47/47/47 48/48/48 59/59/59 58/58/58
f 48/48/48 49/49/49 60/60/60 59/59/59
f 49/49/49 50/50/50 61/61/61 60/60/60
f 50/50/50 51/51/51 62/62/62 61/61/61
f 51/51/51 52/52/52 63/63/63 62/62/62
f 52/52/52 53/53/53 64/64/64 63/63/63
f 53/53/53 54/54/54 65/65/65 64/64/64
f 54/54/54 55/55/55 66/66/66 65/65/65
f 56/56/57 57/57/56 68/68/67 67/67/68
f 57/57/56 58/58/58 69/69/69 68/68/67
f 58/58/58 59/59/59 70/70/70 69/69/69
f 59/59/59 60/60/60 71/71/71 70/70/70
f 60/60/60 61/61/61 72/72/72 71/71/71
f 61/61/61 62/62/62 73/73/73 72/72/72
f 62/62/62 63/63/63 74/74/74 73/73/73
f 63/63/63 64/64/64 75/75/75 74/74/74
f 64/64/64 65/65/65 76/76/76 75/75/75
f 65/65/65 66/66/66 77/77/77 76/76/76
f 67/67/68 68/68/67 79/79/78 78/78/79
f 68/68/67 69/69/69 80/80/80 79/79/78
f 69/69/69 70/70/70 81/81/81 80/80/80
f 70/70/70 71/71/71 82/82/82 81/81/81
f 71/71/71 72/72/72 83/83/83 82/82/82
f 72/72/72 73/73/73 84/84/84 83/83/83
f 73/73/73 74/74/74 85/85/85 84/84/84
f 74/74/74 75/75/75 86/86/86 85/85/85
f 75/75/75 76/76/76 87/87/87 86/86/86
f 76/76/76 77/77/77 88/88/88 87/87/87
f 78/78/79 79/79/78 90/90/89 89/89/90
f 79/79/78 80/80/80 91/91/91 90/90/89
f 80/80/80 81/81/81 92/92/92 91/91/91
f 81/81/81 82/82/82 93/93/93 92/92/92
f 82/82/82 83/83/83 94/94/94 93/93/93
f 83/83/83 84/84/84 95/95/95 94/94/94
f 84/84/84 85/85/85 96/96/96 95/95/95
f 85/85/85 86/86/86 97/97/97 96/96/96
f 86/86/86 87/87/87 98/98/98 97/97/97
f 87/87/87 88/88/88 99/99/99 98/98/98
f 89/89/90 90/90/89 101/101/100 100/100/101
f 90/90/89 91/91/91 102/102/102 101/101/100
f 91/91/91 92/92/92 103/103/103 102/102/102
f 92/92/92 93/93/93 104/104/104 103/103/103
f 93/93/93 94/94/94 105/105/105 104/104/104
f 94/94/94 95/95/95 106/106/106 105/105/105
f 95/95/95 96/96/96 107/107/107 106/106/106
f 96/96/96 97/97/97 108/108/108 107/107/107
f 97/97/97 98/98/98 109/109/109 108/108/108
f 98/98/98 99/99/99 110/110/110 109/109/109
f 100/100/101 101/101/100 112/112/111 111/111/112
f 101/101/100 102/102/102 113/113/113 112/112/111
f 102/102/102 103/103/103 114/114/114 113/113/113
f 103/103/103 104/104/104 115/115/115 114/114/114
f 104/104/104 105/105/105 116/116/116 115/115/115
f 105/105/105 106/106/106 117/117/117 116/116/116
f 106/106/106 107/107/107 118/118/118 117/117/117
f 107/107/107 108/108/108 119/119/119 118/118/118
f 108/108/108 109/109/109 120/120/120 119/119/119
f 109/109/109 110/110/110 121/121/121 120/120/120
