# This file uses centimeters as units for non-parametric coordinates.

mtllib sewer_straight.mtl
g default
v 62.569504 23.693365 -5.030300
v -62.460556 23.693365 -5.030300
v -62.460556 21.611954 -9.568201
v 62.569504 21.611954 -9.568201
v -62.460556 18.370077 -13.169497
v 62.569504 18.370077 -13.169497
v -62.460556 14.285081 -15.481673
v 62.569504 14.285081 -15.481673
v -62.460556 9.756825 -16.278395
v 62.569504 9.756825 -16.278395
v -62.460556 5.228571 -15.481671
v 62.569504 5.228571 -15.481671
v -62.460556 1.143574 -13.169495
v 62.569504 1.143574 -13.169495
v 62.487288 1.143575 13.410150
v -62.460556 1.143575 13.169492
v -62.460556 5.228572 15.481667
v 62.569504 5.228572 15.481667
v -62.460556 9.756825 16.278387
v 62.569504 9.756825 16.278387
v -62.460556 14.285078 15.481666
v 62.569504 14.285078 15.481666
v -62.460556 18.370073 13.169491
v 62.569504 18.370073 13.169491
v -62.460556 21.611944 9.568196
v 62.569504 21.611944 9.568196
v -62.460556 23.693356 5.030298
v 62.569504 23.693356 5.030298
v -62.460556 24.410557 0.000000
v 62.569504 24.410557 0.000000
v 62.569499 27.756216 -6.224286
v -62.460566 27.756216 -6.224286
v -62.460566 25.146837 -11.891646
v 62.569499 25.146837 -11.891646
v -62.460566 21.014133 -16.462914
v 62.569499 21.014133 -16.462914
v -62.460566 15.709731 -19.450813
v 62.569499 15.709731 -19.450813
v -62.460566 9.756824 -20.492741
v 62.569499 9.756824 -20.492741
v -62.460566 3.803919 -19.450811
v 62.569499 3.803919 -19.450811
v -62.460566 -0.964235 -16.893431
v 62.569499 -0.964235 -16.893431
v 62.569499 -0.964233 16.893429
v -62.460566 -0.964233 16.893429
v -62.460566 3.803922 19.450809
v 62.569499 3.803922 19.450809
v -62.460566 9.756826 20.492737
v 62.569499 9.756826 20.492737
v -62.460566 15.709727 19.450808
v 62.569499 15.709727 19.450808
v -62.460566 21.014130 16.462910
v 62.569499 21.014130 16.462910
v -62.460566 25.146832 11.891641
v 62.569499 25.146832 11.891641
v -62.460566 27.756208 6.224287
v 62.569499 27.756208 6.224287
v -62.460566 28.646799 0.000005
v 62.569499 28.646799 0.000005
vt 0.870066 0.000000
vt 0.932406 0.000004
vt 0.932371 0.499704
vt 0.870032 0.499700
vt 0.994093 0.499703
vt 0.932520 0.499700
vt 0.932550 0.000000
vt 0.994122 0.000004
vt 0.993349 0.999403
vt 0.993362 0.499703
vt 0.932532 0.499702
vt 0.932520 0.999402
vt 0.525666 0.504619
vt 0.525626 1.004319
vt 0.586009 1.004324
vt 0.586049 0.504624
vt 0.586104 0.003684
vt 0.586064 0.503384
vt 0.646447 0.503389
vt 0.646487 0.003689
vt 0.645890 0.504843
vt 0.645796 1.004543
vt 0.699857 1.004553
vt 0.699951 0.504853
vt 0.642176 1.004438
vt 0.642269 0.504739
vt 0.588208 0.504728
vt 0.588114 1.004428
vt 0.870072 0.499700
vt 0.870032 0.999400
vt 0.930415 0.999405
vt 0.930455 0.499705
vt 0.523616 0.003560
vt 0.523575 0.503260
vt 0.583958 0.503265
vt 0.583999 0.003565
vt 0.706613 0.499700
vt 0.706600 0.999400
vt 0.767430 0.999402
vt 0.767442 0.499702
vt 0.793152 0.499700
vt 0.793123 0.999400
vt 0.854695 0.999403
vt 0.854725 0.499704
vt 0.807578 0.000000
vt 0.807543 0.499700
vt 0.869883 0.499704
vt 0.869918 0.000004
vt 0.740248 0.000002
vt 0.740260 0.499701
vt 0.803084 0.499700
vt 0.803072 0.000000
vt 0.672953 0.000002
vt 0.672965 0.499701
vt 0.735789 0.499700
vt 0.735777 0.000000
vt 0.509449 0.706060
vt 0.509436 0.755943
vt 0.009736 0.755804
vt 0.009750 0.705921
vt 0.509422 0.804357
vt 0.009723 0.804219
vt 0.509409 0.851258
vt 0.009710 0.851119
vt 0.509396 0.897197
vt 0.009697 0.897058
vt 0.509384 0.943136
vt 0.009684 0.942998
vt 0.509371 0.990037
vt 0.009671 0.989898
vt 0.010185 0.321544
vt 0.509561 0.320546
vt 0.509543 0.367446
vt 0.009844 0.367307
vt 0.509531 0.413385
vt 0.009831 0.413247
vt 0.509518 0.459325
vt 0.009818 0.459186
vt 0.509505 0.506225
vt 0.009805 0.506086
vt 0.509492 0.554639
vt 0.009792 0.554501
vt 0.509478 0.604522
vt 0.009778 0.604383
vt 0.509463 0.655291
vt 0.009764 0.655152
vt 0.000000 0.000000
vt 0.000000 0.000000
vt 0.000000 0.000000
vt 0.000000 0.000000
vt 0.000000 0.000000
vt 0.000000 0.000000
vt 0.000000 0.000000
vt 0.000000 0.000000
vt 0.000000 0.000000
vt 0.000000 0.000000
vt 0.000000 0.000000
vt 0.000000 0.000000
vt 0.000000 0.000000
vt 0.000000 0.000000
vt 0.000000 0.000000
vt 0.000000 0.000000
vt 0.000000 0.000000
vt 0.000000 0.000000
vt 0.000000 0.000000
vt 0.000000 0.000000
vt 0.000000 0.000000
vt 0.000000 0.000000
vt 0.000000 0.000000
vt 0.000000 0.000000
vt 0.000000 0.000000
vt 0.000000 0.000000
vt 0.000000 0.000000
vt 0.000000 0.000000
vt 0.000000 0.000000
vt 0.000000 0.000000
vt 0.000000 0.000000
vt 0.000000 0.000000
vt 0.000000 0.000000
vt 0.000000 0.000000
vt 0.000000 0.000000
vt 0.000000 0.000000
vt 0.000000 0.000000
vt 0.000000 0.000000
vt 0.000000 0.000000
vt 0.000000 0.000000
vt 0.000000 0.000000
vt 0.000000 0.000000
vt 0.000000 0.000000
vt 0.000000 0.000000
vt 0.000000 0.000000
vt 0.000000 0.000000
vt 0.000000 0.000000
vt 0.000000 0.000000
vt 0.000000 0.000000
vt 0.000000 0.000000
vt 0.000000 0.000000
vt 0.000000 0.000000
vt 0.000000 0.000000
vt 0.000000 0.000000
vt 0.000000 0.000000
vt 0.000000 0.000000
vt 0.000000 0.000000
vt 0.000000 0.000000
vt 0.000000 0.000000
vt 0.000000 0.000000
vt 0.000000 0.000000
vt 0.000000 0.000000
vt 0.000000 0.000000
vt 0.000000 0.000000
vt 0.000000 0.000000
vt 0.000000 0.000000
vt 0.000000 0.000000
vt 0.000000 0.000000
vt 0.000000 0.000000
vt 0.000000 0.000000
vt 0.000000 0.000000
vt 0.000000 0.000000
vt 0.000000 0.000000
vt 0.000000 0.000000
vt 0.000000 0.000000
vt 0.000000 0.000000
vt 0.000000 0.000000
vt 0.000000 0.000000
vt 0.000000 0.000000
vt 0.000000 0.000000
vt 0.000000 0.000000
vt 0.000000 0.000000
vt 0.000000 0.000000
vt 0.000000 0.000000
vt 0.000000 0.000000
vt 0.000000 0.000000
vt 0.000000 0.000000
vt 0.000000 0.000000
vt 0.000000 0.000000
vt 0.000000 0.000000
vt 0.000000 0.000000
vt 0.000000 0.000000
vt 0.000000 0.000000
vt 0.000000 0.000000
vt 0.000000 0.000000
vt 0.000000 0.000000
vt 0.000000 0.000000
vt 0.000000 0.000000
vt 0.000000 0.000000
vt 0.000000 0.000000
vt 0.000000 0.000000
vt 0.000000 0.000000
vt 0.000000 0.000000
vt 0.000000 0.000000
vt 0.000000 0.000000
vt 0.000000 0.000000
vt 0.000000 0.000000
vt 0.000000 0.000000
vt 0.000000 0.000000
vt 0.000000 0.000000
vt 0.000000 0.000000
vt 0.000000 0.000000
vt 0.000000 0.000000
vt 0.000000 0.000000
vt 0.000000 0.000000
vt 0.000000 0.000000
vt 0.000000 0.000000
vt 0.000000 0.000000
vt 0.000000 0.000000
vt 0.000000 0.000000
vn 0.000000 0.908345 -0.418222
vn 0.000000 0.908345 -0.418222
vn 0.000000 0.908345 -0.418222
vn 0.000000 0.908345 -0.418222
vn 0.000000 0.741795 -0.670627
vn 0.000000 0.741795 -0.670627
vn 0.000000 0.741795 -0.670627
vn 0.000000 0.741795 -0.670627
vn 0.000000 0.490782 -0.871283
vn 0.000000 0.490782 -0.871283
vn 0.000000 0.490782 -0.871283
vn 0.000000 0.490782 -0.871283
vn 0.000000 0.172408 -0.985026
vn 0.000000 0.172408 -0.985026
vn 0.000000 0.172408 -0.985026
vn 0.000000 0.172408 -0.985026
vn 0.000000 -0.172408 -0.985026
vn 0.000000 -0.172408 -0.985026
vn 0.000000 -0.172408 -0.985026
vn 0.000000 -0.172408 -0.985026
vn 0.000000 -0.472654 -0.881248
vn 0.000000 -0.472654 -0.881248
vn 0.000000 -0.472654 -0.881248
vn 0.000000 -0.472654 -0.881248
vn 0.000000 -0.472654 0.881248
vn 0.000000 -0.318266 0.948001
vn 0.000000 -0.318266 0.948001
vn 0.000000 -0.472654 0.881248
vn 0.000000 -0.318266 0.948001
vn 0.000000 0.000000 1.000000
vn 0.000000 0.000000 1.000000
vn 0.000000 -0.318266 0.948001
vn 0.000000 0.000000 1.000000
vn 0.000000 0.337031 0.941494
vn 0.000000 0.337031 0.941494
vn 0.000000 0.000000 1.000000
vn 0.000000 0.337031 0.941494
vn 0.000000 0.625173 0.780486
vn 0.000000 0.625173 0.780486
vn 0.000000 0.337031 0.941494
vn 0.000000 0.625173 0.780486
vn 0.000000 0.835187 0.549966
vn 0.000000 0.835187 0.549966
vn 0.000000 0.625173 0.780486
vn 0.000000 0.835187 0.549966
vn 0.000000 0.908345 0.418222
vn 0.000000 0.908345 0.418222
vn 0.000000 0.835187 0.549966
vn 0.000000 0.989918 0.141641
vn 0.000000 1.000000 0.000001
vn 0.000000 1.000000 0.000001
vn 0.000000 0.989918 0.141641
vn 0.000000 1.000000 0.000001
vn 0.000000 0.989918 -0.141640
vn 0.000000 0.989918 -0.141640
vn 0.000000 1.000000 0.000001
vn 0.000000 -0.908948 0.416910
vn 0.000000 -0.908948 0.416910
vn 0.000000 -0.908948 0.416910
vn 0.000000 -0.908948 0.416910
vn 0.000000 -0.743221 0.669046
vn 0.000000 -0.743221 0.669046
vn 0.000000 -0.743221 0.669046
vn 0.000000 -0.743221 0.669046
vn 0.000000 -0.492584 0.870265
vn 0.000000 -0.492584 0.870265
vn 0.000000 -0.492584 0.870265
vn 0.000000 -0.492584 0.870265
vn 0.000000 -0.173283 0.984872
vn 0.000000 -0.173283 0.984872
vn 0.000000 -0.173283 0.984872
vn 0.000000 -0.173283 0.984872
vn 0.000000 0.173284 0.984872
vn 0.000000 0.173284 0.984872
vn 0.000000 0.173284 0.984872
vn 0.000000 0.173284 0.984872
vn 0.000000 0.492584 0.870265
vn 0.000000 0.492584 0.870265
vn 0.000000 0.492584 0.870265
vn 0.000000 0.000000 0.000000
vn 0.000000 0.492584 -0.870265
vn 0.000000 0.492584 -0.870265
vn 0.000000 0.492584 -0.870265
vn 0.000000 0.000000 0.000000
vn 0.000000 0.173283 -0.984872
vn 0.000000 0.173283 -0.984872
vn 0.000000 0.173283 -0.984872
vn 0.000000 0.173283 -0.984872
vn 0.000000 -0.173283 -0.984872
vn 0.000000 -0.173283 -0.984872
vn 0.000000 -0.173283 -0.984872
vn 0.000000 -0.173283 -0.984872
vn 0.000000 -0.492585 -0.870265
vn 0.000000 -0.492585 -0.870265
vn 0.000000 -0.492585 -0.870265
vn 0.000000 -0.492584 -0.870265
vn 0.000000 -0.743222 -0.669045
vn 0.000000 -0.743222 -0.669045
vn 0.000000 -0.743222 -0.669045
vn 0.000000 -0.743222 -0.669045
vn 0.000000 -0.908948 -0.416910
vn 0.000000 -0.908948 -0.416910
vn 0.000000 -0.908948 -0.416910
vn 0.000000 -0.908948 -0.416910
vn 0.000000 -0.989988 -0.141149
vn 0.000000 -0.989988 -0.141149
vn 0.000000 -0.989988 -0.141149
vn 0.000000 -0.989988 -0.141149
vn 0.000000 -0.989989 0.141147
vn 0.000000 -0.989989 0.141147
vn 0.000000 -0.989989 0.141147
vn 0.000000 -0.989989 0.141147
vn -1.000000 -0.000002 0.000000
vn -1.000000 -0.000002 0.000000
vn -1.000000 -0.000002 0.000000
vn -1.000000 -0.000002 0.000000
vn 1.000000 0.000002 -0.000002
vn 1.000000 0.000002 -0.000002
vn 1.000000 0.000002 0.000000
vn 1.000000 0.000002 0.000000
vn -1.000000 -0.000002 0.000000
vn -1.000000 -0.000002 0.000000
vn -1.000000 0.000000 0.000000
vn -1.000000 0.000000 0.000000
vn 1.000000 0.000000 -0.000002
vn 1.000000 0.000000 -0.000002
vn 1.000000 0.000002 -0.000002
vn 1.000000 0.000002 -0.000002
vn -1.000000 0.000000 0.000000
vn -1.000000 0.000000 0.000000
vn -1.000000 0.000000 0.000002
vn -1.000000 0.000000 0.000002
vn 1.000000 0.000000 -0.000002
vn 1.000000 0.000000 -0.000002
vn 1.000000 0.000000 -0.000002
vn 1.000000 0.000000 -0.000002
vn -1.000000 0.000000 0.000002
vn -1.000000 0.000000 0.000002
vn -1.000000 0.000000 0.000002
vn -1.000000 0.000000 0.000002
vn 1.000000 0.000000 -0.000002
vn 1.000000 0.000000 -0.000002
vn 1.000000 0.000000 -0.000002
vn 1.000000 0.000000 -0.000002
vn -1.000000 0.000000 0.000002
vn -1.000000 0.000000 0.000002
vn -1.000000 0.000000 0.000000
vn -1.000000 0.000000 0.000000
vn 1.000000 0.000000 -0.000002
vn 1.000000 0.000000 -0.000002
vn 1.000000 0.000000 -0.000002
vn 1.000000 0.000000 -0.000002
vn -1.000000 0.000000 0.000000
vn -1.000000 0.000000 0.000000
vn -1.000000 0.000000 0.000000
vn -1.000000 0.000000 0.000000
vn 0.000000 -0.870265 0.492584
vn 0.000000 -0.870265 0.492584
vn 0.000000 -0.870265 0.492584
vn 0.000000 -0.870265 0.492584
vn 1.000000 0.000000 -0.000002
vn 1.000000 0.000000 -0.000002
vn 1.000000 0.000000 -0.000002
vn 1.000000 0.000000 -0.000002
vn 0.000000 -0.870265 -0.492584
vn 0.000000 -0.870265 -0.492584
vn 0.000000 -0.870265 -0.492584
vn 0.000000 -0.870265 -0.492584
vn -1.000000 0.000000 -0.000000
vn -1.000000 0.000000 -0.000000
vn -1.000000 0.000000 -0.000002
vn -1.000000 0.000000 -0.000002
vn 1.000000 -0.000000 0.000002
vn 1.000000 -0.000000 0.000002
vn 1.000000 -0.000000 0.000002
vn 1.000000 -0.000000 0.000002
vn -1.000000 0.000000 -0.000002
vn -1.000000 0.000000 -0.000002
vn -1.000000 0.000000 -0.000002
vn -1.000000 0.000000 -0.000002
vn 1.000000 0.000000 0.000002
vn 1.000000 0.000000 0.000002
vn 1.000000 -0.000000 0.000002
vn 1.000000 -0.000000 0.000002
vn -1.000000 0.000000 -0.000002
vn -1.000000 0.000000 -0.000002
vn -1.000000 0.000000 0.000000
vn -1.000000 0.000000 0.000000
vn 1.000000 0.000000 0.000000
vn 1.000000 0.000000 0.000000
vn 1.000000 0.000000 0.000002
vn 1.000000 0.000000 0.000002
vn -1.000000 0.000000 0.000000
vn -1.000000 0.000000 0.000000
vn -1.000000 0.000000 0.000000
vn -1.000000 0.000000 0.000000
vn 1.000000 0.000000 0.000002
vn 1.000000 0.000000 0.000002
vn 1.000000 0.000000 0.000000
vn 1.000000 0.000000 0.000000
vn -1.000000 0.000000 0.000000
vn -1.000000 0.000000 0.000000
vn -1.000000 -0.000002 0.000000
vn -1.000000 -0.000002 0.000000
vn 1.000000 0.000002 0.000000
vn 1.000000 0.000002 0.000000
vn 1.000000 0.000000 0.000002
vn 1.000000 0.000000 0.000002
vn -1.000000 -0.000002 0.000000
vn -1.000000 -0.000002 0.000000
vn -1.000000 -0.000002 0.000000
vn -1.000000 -0.000002 0.000000
vn 1.000000 0.000002 0.000000
vn 1.000000 0.000002 0.000000
vn 1.000000 0.000002 0.000000
vn 1.000000 0.000002 0.000000
vn -1.000000 -0.000002 0.000000
vn -1.000000 -0.000002 0.000000
vn -1.000000 -0.000002 0.000000
vn -1.000000 -0.000002 0.000000
vn 1.000000 0.000002 0.000000
vn 1.000000 0.000002 0.000000
vn 1.000000 0.000002 0.000000
vn 1.000000 0.000002 0.000000
vn -1.000000 -0.000002 0.000000
vn -1.000000 -0.000002 0.000000
vn -1.000000 -0.000002 0.000000
vn -1.000000 -0.000002 0.000000
vn 1.000000 0.000002 0.000000
vn 1.000000 0.000002 0.000000
vn 1.000000 0.000002 0.000000
vn 1.000000 0.000002 0.000000
s off
g walls
usemtl tunnel_updated:initialShadingGroup
f 31/1/1 34/2/2 33/3/3 32/4/4
f 34/5/5 36/6/6 35/7/7 33/8/8
f 36/9/9 38/12/10 37/11/11 35/10/12
f 38/13/13 40/16/14 39/15/15 37/14/16
f 40/17/17 42/20/18 41/19/19 39/18/20
f 42/21/21 44/24/22 43/23/23 41/22/24
f 45/25/25 48/28/26 47/27/27 46/26/28
f 48/29/29 50/32/30 49/31/31 47/30/32
f 50/33/33 52/36/34 51/35/35 49/34/36
f 52/37/37 54/40/38 53/39/39 51/38/40
f 54/41/41 56/44/42 55/43/43 53/42/44
f 56/45/45 58/48/46 57/47/47 55/46/48
f 58/49/49 60/52/50 59/51/51 57/50/52
f 60/53/53 31/56/54 32/55/55 59/54/56
f 3/58/57 4/59/58 1/60/59 2/57/60
f 5/61/61 6/62/62 4/59/63 3/58/64
f 7/63/65 8/64/66 6/62/67 5/61/68
f 9/65/69 10/66/70 8/64/71 7/63/72
f 11/67/73 12/68/74 10/66/75 9/65/76
f 14/70/77 12/68/78 11/67/79 13/69/80
f 16/72/81 17/73/82 18/74/83 15/71/84
f 19/75/85 20/76/86 18/74/87 17/73/88
f 21/77/89 22/78/90 20/76/91 19/75/92
f 23/79/93 24/80/94 22/78/95 21/77/96
f 25/81/97 26/82/98 24/80/99 23/79/100
f 27/83/101 28/84/102 26/82/103 25/81/104
f 29/85/105 30/86/106 28/84/107 27/83/108
f 2/57/109 1/60/110 30/86/111 29/85/112
f 2/87/113 32/90/114 33/89/115 3/88/116
f 4/91/117 34/94/118 31/93/119 1/92/120
f 3/95/121 33/98/122 35/97/123 5/96/124
f 6/99/125 36/102/126 34/101/127 4/100/128
f 5/103/129 35/106/130 37/105/131 7/104/132
f 8/107/133 38/110/134 36/109/135 6/108/136
f 7/111/137 37/114/138 39/113/139 9/112/140
f 10/115/141 40/118/142 38/117/143 8/116/144
f 9/119/145 39/122/146 41/121/147 11/120/148
f 12/123/149 42/126/150 40/125/151 10/124/152
f 11/127/153 41/130/154 43/129/155 13/128/156
f 13/131/157 43/134/158 44/133/159 14/132/160
f 14/135/161 44/138/162 42/137/163 12/136/164
f 15/139/165 45/142/166 46/141/167 16/140/168
f 16/143/169 46/146/170 47/145/171 17/144/172
f 18/147/173 48/150/174 45/149/175 15/148/176
f 17/151/177 47/154/178 49/153/179 19/152/180
f 20/155/181 50/158/182 48/157/183 18/156/184
f 19/159/185 49/162/186 51/161/187 21/160/188
f 22/163/189 52/166/190 50/165/191 20/164/192
f 21/167/193 51/170/194 53/169/195 23/168/196
f 24/171/197 54/174/198 52/173/199 22/172/200
f 23/175/201 53/178/202 55/177/203 25/176/204
f 26/179/205 56/182/206 54/181/207 24/180/208
f 25/183/209 55/186/210 57/185/211 27/184/212
f 28/187/213 58/190/214 56/189/215 26/188/216
f 27/191/217 57/194/218 59/193/219 29/192/220
f 30/195/221 60/198/222 58/197/223 28/196/224
f 29/199/225 59/202/226 32/201/227 2/200/228
f 1/203/229 31/206/230 60/205/231 30/204/232
g default
v -62.500000 -0.250000 -7.433000
v 62.500000 -0.250000 -7.433000
v -62.500000 1.250000 -7.433000
v 62.500000 1.250000 -7.433000
v -62.500000 1.250000 -13.433000
v 62.500000 1.250000 -13.433000
v -62.500000 -0.250000 -13.433000
v 62.500000 -0.250000 -13.433000
vt 0.096470 0.253479
vt 0.900387 0.242595
vt 0.900714 0.266712
vt 0.096797 0.277597
vt 0.902020 0.363182
vt 0.098103 0.374067
vt 0.902346 0.387300
vt 0.098429 0.398185
vt 0.903652 0.483770
vt 0.099735 0.494655
vt 0.996857 0.241288
vt 0.997183 0.265406
vt 0.000000 0.254786
vt 0.000327 0.278903
vn 0.000000 0.000000 1.000000
vn 0.000000 0.000000 1.000000
vn 0.000000 0.000000 1.000000
vn 0.000000 0.000000 1.000000
vn 0.000000 1.000000 0.000000
vn 0.000000 1.000000 0.000000
vn 0.000000 1.000000 0.000000
vn 0.000000 1.000000 0.000000
vn 0.000000 0.000000 -1.000000
vn 0.000000 0.000000 -1.000000
vn 0.000000 0.000000 -1.000000
vn 0.000000 0.000000 -1.000000
vn 0.000000 -1.000000 0.000000
vn 0.000000 -1.000000 0.000000
vn 0.000000 -1.000000 0.000000
vn 0.000000 -1.000000 0.000000
vn 1.000000 0.000000 0.000000
vn 1.000000 0.000000 0.000000
vn 1.000000 0.000000 0.000000
vn 1.000000 0.000000 0.000000
vn -1.000000 0.000000 0.000000
vn -1.000000 0.000000 0.000000
vn -1.000000 0.000000 0.000000
vn -1.000000 0.000000 0.000000
s off
g walkway2
usemtl tunnel_updated:initialShadingGroup
f 61/207/233 62/208/234 64/209/235 63/210/236
f 63/210/237 64/209/238 66/211/239 65/212/240
f 65/212/241 66/211/242 68/213/243 67/214/244
f 67/214/245 68/213/246 62/215/247 61/216/248
f 62/208/249 68/217/250 66/218/251 64/209/252
f 67/219/253 61/207/254 63/210/255 65/220/256
g default
v -62.500000 -0.250000 13.432710
v 62.500000 -0.250000 13.432710
v -62.500000 1.250000 13.432710
v 62.500000 1.250000 13.432710
v -62.500000 1.250000 7.432710
v 62.500000 1.250000 7.432710
v -62.500000 -0.250000 7.432710
v 62.500000 -0.250000 7.432710
vt 0.096470 0.012191
vt 0.900387 0.001306
vt 0.900713 0.025424
vt 0.096797 0.036309
vt 0.902020 0.121894
vt 0.098103 0.132779
vt 0.902346 0.146011
vt 0.098429 0.156896
vt 0.903652 0.242481
vt 0.099735 0.253366
vt 0.996857 0.000000
vt 0.997184 0.024117
vt 0.000000 0.013497
vt 0.000327 0.037615
vn 0.000000 0.000000 1.000000
vn 0.000000 0.000000 1.000000
vn 0.000000 0.000000 1.000000
vn 0.000000 0.000000 1.000000
vn 0.000000 1.000000 0.000000
vn 0.000000 1.000000 0.000000
vn 0.000000 1.000000 0.000000
vn 0.000000 1.000000 0.000000
vn 0.000000 0.000000 -1.000000
vn 0.000000 0.000000 -1.000000
vn 0.000000 0.000000 -1.000000
vn 0.000000 0.000000 -1.000000
vn 0.000000 -1.000000 0.000000
vn 0.000000 -1.000000 0.000000
vn 0.000000 -1.000000 0.000000
vn 0.000000 -1.000000 0.000000
vn 1.000000 0.000000 0.000000
vn 1.000000 0.000000 0.000000
vn 1.000000 0.000000 0.000000
vn 1.000000 0.000000 0.000000
vn -1.000000 0.000000 0.000000
vn -1.000000 0.000000 0.000000
vn -1.000000 0.000000 0.000000
vn -1.000000 0.000000 0.000000
s off
g walkway1
usemtl tunnel_updated:initialShadingGroup
f 69/221/257 70/222/258 72/223/259 71/224/260
f 71/224/261 72/223/262 74/225/263 73/226/264
f 73/226/265 74/225/266 76/227/267 75/228/268
f 75/228/269 76/227/270 70/229/271 69/230/272
f 70/222/273 76/231/274 74/232/275 72/223/276
f 75/233/277 69/221/278 71/224/279 73/234/280
g default
v -62.500000 -0.250000 7.500000
v 62.500000 -0.250000 7.500000
v -62.500000 0.250000 7.500000
v 62.500000 0.250000 7.500000
v -62.500000 0.250000 -7.500000
v 62.500000 0.250000 -7.500000
v -62.500000 -0.250000 -7.500000
v 62.500000 -0.250000 -7.500000
vt 0.000000 0.983879
vt 0.803990 0.983891
vt 0.803990 0.991931
vt 0.000000 0.991919
vt 0.189128 0.734645
vt 0.993118 0.734337
vt 0.993211 0.975534
vt 0.189220 0.975842
vt 0.000000 0.975839
vt 0.803990 0.975851
vt 0.803990 0.983891
vt 0.000000 0.983879
vt 0.189128 0.493446
vt 0.993118 0.493138
vt 0.993211 0.734335
vt 0.189220 0.734643
vt 0.000001 0.000001
vt 0.241199 0.000042
vt 0.241197 0.008082
vt 0.000000 0.008041
vt 0.000001 0.991919
vt 0.241199 0.991960
vt 0.241197 1.000000
vt 0.000000 0.999959
vn 0.000000 0.000000 1.000000
vn 0.000000 0.000000 1.000000
vn 0.000000 0.000000 1.000000
vn 0.000000 0.000000 1.000000
vn 0.000000 1.000000 0.000000
vn 0.000000 1.000000 0.000000
vn 0.000000 1.000000 0.000000
vn 0.000000 1.000000 0.000000
vn 0.000000 0.000000 -1.000000
vn 0.000000 0.000000 -1.000000
vn 0.000000 0.000000 -1.000000
vn 0.000000 0.000000 -1.000000
vn 0.000000 -1.000000 0.000000
vn 0.000000 -1.000000 0.000000
vn 0.000000 -1.000000 0.000000
vn 0.000000 -1.000000 0.000000
vn 1.000000 0.000000 0.000000
vn 1.000000 0.000000 0.000000
vn 1.000000 0.000000 0.000000
vn 1.000000 0.000000 0.000000
vn -1.000000 0.000000 0.000000
vn -1.000000 0.000000 0.000000
vn -1.000000 0.000000 0.000000
vn -1.000000 0.000000 0.000000
s off
g floor
usemtl tunnel_updated:initialShadingGroup
f 77/235/281 78/236/282 80/237/283 79/238/284
f 79/239/285 80/240/286 82/241/287 81/242/288
f 81/243/289 82/244/290 84/245/291 83/246/292
f 83/247/293 84/248/294 78/249/295 77/250/296
f 78/251/297 84/252/298 82/253/299 80/254/300
f 83/255/301 77/256/302 79/257/303 81/258/304
